<svg width="22" height="16" viewBox="0 0 22 16" fill="none" xmlns="http://www.w3.org/2000/svg">
<path d="M7.86731 13.0909C7.68357 13.0903 7.50689 13.0201 7.37276 12.8945C6.70862 12.264 6.17975 11.5049 5.81834 10.6634C5.45694 9.82198 5.27057 8.91578 5.27057 7.99999C5.27057 7.08421 5.45694 6.178 5.81834 5.33654C6.17975 4.49509 6.70862 3.73598 7.37276 3.10545C7.51588 2.9894 7.6977 2.93199 7.88151 2.94483C8.06532 2.95768 8.2374 3.0398 8.36298 3.17463C8.48857 3.30945 8.55831 3.48691 8.5581 3.67117C8.55789 3.85542 8.48775 4.03273 8.36185 4.16726C7.84487 4.6628 7.43349 5.25781 7.15245 5.91648C6.87142 6.57515 6.72654 7.28387 6.72654 7.99999C6.72654 8.71611 6.87142 9.42483 7.15245 10.0835C7.43349 10.7422 7.84487 11.3372 8.36185 11.8327C8.46819 11.9323 8.54218 12.0615 8.57424 12.2036C8.6063 12.3457 8.59495 12.4941 8.54167 12.6297C8.48838 12.7653 8.39561 12.8817 8.27537 12.9639C8.15513 13.0462 8.01297 13.0904 7.86731 13.0909ZM4.95821 15.04C5.09367 14.9037 5.1697 14.7194 5.1697 14.5273C5.1697 14.3351 5.09367 14.1508 4.95821 14.0145C4.14457 13.2383 3.49689 12.305 3.05436 11.2712C2.61183 10.2374 2.38366 9.12453 2.38366 7.99999C2.38366 6.87545 2.61183 5.7626 3.05436 4.72879C3.49689 3.69498 4.14457 2.7617 4.95821 1.98544C5.09902 1.84946 5.18004 1.66311 5.18345 1.46739C5.18686 1.27167 5.11238 1.08261 4.9764 0.941808C4.84041 0.801002 4.65406 0.719983 4.45834 0.716573C4.26262 0.713164 4.07357 0.787643 3.93276 0.923626C2.97474 1.8365 2.21206 2.9344 1.69094 4.15078C1.16982 5.36716 0.901123 6.67668 0.901123 7.99999C0.901123 9.3233 1.16982 10.6328 1.69094 11.8492C2.21206 13.0656 2.97474 14.1635 3.93276 15.0764C4.00274 15.1422 4.08507 15.1935 4.17501 15.2274C4.26494 15.2612 4.36068 15.2769 4.45671 15.2735C4.55273 15.2701 4.64713 15.2477 4.73446 15.2077C4.82179 15.1676 4.90031 15.1106 4.96549 15.04H4.95821ZM14.7982 12.8945C15.4624 12.264 15.9912 11.5049 16.3526 10.6634C16.714 9.82198 16.9004 8.91578 16.9004 7.99999C16.9004 7.08421 16.714 6.178 16.3526 5.33654C15.9912 4.49509 15.4624 3.73598 14.7982 3.10545C14.7285 3.04002 14.6466 2.98897 14.5571 2.95521C14.4677 2.92145 14.3725 2.90564 14.2769 2.90868C14.1813 2.91172 14.0873 2.93355 14.0002 2.97292C13.9131 3.0123 13.8345 3.06845 13.7691 3.13817C13.7037 3.20789 13.6527 3.28982 13.6189 3.37926C13.5851 3.46871 13.5693 3.56394 13.5724 3.6595C13.5754 3.75505 13.5972 3.84908 13.6366 3.9362C13.676 4.02333 13.7321 4.10184 13.8019 4.16726C14.3216 4.66119 14.7355 5.25567 15.0183 5.91456C15.3011 6.57344 15.4469 7.28297 15.4469 7.99999C15.4469 8.71701 15.3011 9.42654 15.0183 10.0854C14.7355 10.7443 14.3216 11.3388 13.8019 11.8327C13.6615 11.9641 13.5788 12.1458 13.572 12.3379C13.5652 12.5301 13.6348 12.7172 13.7655 12.8582C13.8341 12.9322 13.9174 12.9911 14.0101 13.0312C14.1027 13.0712 14.2027 13.0916 14.3037 13.0909C14.4874 13.0903 14.6641 13.0201 14.7982 12.8945ZM18.2309 15.0764C19.1918 14.1651 19.9569 13.0677 20.4799 11.8511C21.0028 10.6345 21.2724 9.3242 21.2724 7.99999C21.2724 6.67578 21.0028 5.36543 20.4799 4.14884C19.9569 2.93224 19.1918 1.83487 18.2309 0.923626C18.0878 0.807577 17.906 0.750174 17.7222 0.763016C17.5384 0.775857 17.3663 0.857986 17.2407 0.992808C17.1151 1.12763 17.0454 1.3051 17.0456 1.48935C17.0458 1.6736 17.116 1.85091 17.2419 1.98544C18.0555 2.7617 18.7032 3.69498 19.1457 4.72879C19.5882 5.7626 19.8164 6.87545 19.8164 7.99999C19.8164 9.12453 19.5882 10.2374 19.1457 11.2712C18.7032 12.305 18.0555 13.2383 17.2419 14.0145C17.1015 14.1459 17.0188 14.3276 17.012 14.5198C17.0052 14.7119 17.0748 14.899 17.2055 15.04C17.2733 15.1131 17.3554 15.1715 17.4468 15.2115C17.5381 15.2516 17.6367 15.2724 17.7364 15.2727C17.9201 15.2721 18.0968 15.2019 18.2309 15.0764ZM12.5437 7.99999C12.5437 7.71231 12.4584 7.43109 12.2985 7.19189C12.1387 6.95269 11.9115 6.76626 11.6458 6.65617C11.38 6.54607 11.0875 6.51727 10.8054 6.57339C10.5232 6.62952 10.264 6.76805 10.0606 6.97147C9.85718 7.17489 9.71865 7.43407 9.66253 7.71622C9.6064 7.99838 9.63521 8.29084 9.7453 8.55662C9.85539 8.8224 10.0418 9.04957 10.281 9.2094C10.5202 9.36923 10.8014 9.45454 11.0891 9.45454C11.4749 9.45454 11.8449 9.30129 12.1176 9.02851C12.3904 8.75573 12.5437 8.38576 12.5437 7.99999Z" fill="#F16969"/>
</svg>
